<?xml version="1.0" encoding="UTF-8"?>
<svg id="Layer_1" data-name="Layer 1" xmlns="http://www.w3.org/2000/svg" xmlns:xlink="http://www.w3.org/1999/xlink" viewBox="0 0 258.49 65.36">
  <defs>
    <style>
      .cls-1 {
        fill: none;
      }

      .cls-2 {
        fill: #f58220;
      }

      .cls-3 {
        fill: #414042;
      }

      .cls-4 {
        clip-path: url(#clippath-1);
      }

      .cls-5 {
        clip-path: url(#clippath);
      }
    </style>
    <clipPath id="clippath">
      <path class="cls-1" d="M21.9,27.48c-.99-.99-1.48-2.11-1.48-3.35v-15.26c0-.77-.14-1.52-.39-2.21h2.38c1.29,0,2.42.5,3.41,1.49.98.99,1.48,2.11,1.48,3.35v15.26c0,.78.14,1.52.38,2.21h-2.38c-1.29,0-2.42-.49-3.4-1.48M11.99,0c-2.69,0-5.14.84-7.36,2.51-.75.57-1.43,1.23-2.03,1.97C.87,6.65,0,9.07,0,11.73v21.74c3.77,0,6.83-3,6.83-6.71v-15.26c0-1.23.51-2.35,1.51-3.34,1.01-1,2.14-1.49,3.41-1.49h1.84v17.24c0,2.64.86,5.05,2.56,7.22.58.74,1.26,1.4,2.01,1.97,2.22,1.69,4.67,2.54,7.38,2.54h10.19c2.69,0,5.14-.84,7.36-2.51.76-.57,1.44-1.23,2.03-1.97,1.74-2.17,2.61-4.59,2.61-7.25V2.16c-3.77,0-6.83,3-6.83,6.71v15.26c0,1.23-.51,2.35-1.51,3.34s-2.15,1.49-3.42,1.49h-1.84V11.73c0-2.64-.85-5.05-2.56-7.22-.58-.74-1.26-1.4-2-1.98-2.21-1.69-4.67-2.54-7.38-2.54h-10.19Z"/>
    </clipPath>
    <clipPath id="clippath-1">
      <rect class="cls-1" x="81.65" y="24.95" width="78.07" height="20.45"/>
    </clipPath>
  </defs>
  <path class="cls-3" d="M252.27,18.45h.82c.54,0,.87-.02,1-.07.13-.05.24-.13.31-.24.08-.11.12-.26.12-.43,0-.19-.05-.35-.15-.47-.1-.12-.24-.19-.42-.22-.09-.01-.36-.02-.82-.02h-.87v1.45ZM251.16,21.76v-5.74h2.35c.59,0,1.02.05,1.29.15.27.1.48.29.64.55.16.26.24.56.24.9,0,.43-.12.79-.37,1.07-.24.28-.61.46-1.09.53.24.15.44.31.6.48.16.17.37.49.64.93l.67,1.12h-1.33l-.81-1.25c-.29-.45-.48-.73-.59-.84-.1-.12-.22-.19-.34-.24-.12-.04-.3-.06-.56-.06h-.22v2.39h-1.12Z"/>
  <path class="cls-3" d="M253.15,23.45c-2.44,0-4.43-2.06-4.43-4.59s1.98-4.59,4.43-4.59,4.43,2.06,4.43,4.59-1.98,4.59-4.43,4.59M253.15,13.31c-2.95,0-5.34,2.48-5.34,5.54s2.39,5.54,5.34,5.54,5.34-2.48,5.34-5.54-2.39-5.54-5.34-5.54"/>
  <path class="cls-2" d="M25.54,35.63h10.18c2.69,0,5.15-.83,7.36-2.51.76-.57,1.44-1.23,2.03-1.97,1.74-2.18,2.61-4.59,2.61-7.25V2.16c-3.77,0-6.83,3-6.83,6.71v15.26c0,1.23-.51,2.34-1.51,3.34-1.01,1-2.15,1.5-3.42,1.5h-1.84V11.73c0-2.65-.85-5.05-2.56-7.22-.58-.74-1.26-1.4-2.01-1.98C27.35.85,24.89,0,22.18,0h-10.19C9.3,0,6.85.84,4.64,2.51c-.75.57-1.44,1.23-2.03,1.97C.87,6.65,0,9.07,0,11.73v21.73c3.77,0,6.83-3,6.83-6.71v-15.26c0-1.23.51-2.34,1.51-3.34,1.01-1,2.14-1.49,3.41-1.49h1.84v17.24c0,2.64.85,5.05,2.56,7.22.58.74,1.26,1.4,2,1.97,2.22,1.69,4.67,2.54,7.38,2.54M21.9,27.48c-.98-.99-1.48-2.11-1.48-3.35v-15.26c0-.77-.14-1.52-.39-2.21h2.38c1.29,0,2.42.49,3.4,1.48.98.99,1.48,2.11,1.48,3.35v15.26c0,.78.14,1.52.39,2.21h-2.38c-1.29,0-2.42-.5-3.4-1.49"/>
  <g class="cls-5">
    <g class="cls-4">
      <rect class="cls-2" x="81.18" y="24.84" width="14.47" height="11"/>
    </g>
  </g>
  <path class="cls-2" d="M219.06,38.27h-2.47v20.94h2.47v-20.94ZM200.15,38.27h-2.5v17.7c.02.98.43,1.8,1.22,2.47.79.66,2.06,1,3.78,1,.88,0,1.64-.09,2.26-.27.63-.18,1.15-.43,1.56-.75.41-.32.71-.69.9-1.11.19-.42.28-.87.28-1.36v-7.22c0-.73-.19-1.4-.57-2-.38-.6-.93-1.02-1.63-1.27-.35-.11-.75-.25-1.2-.4-.45-.15-.89-.3-1.31-.45-.42-.14-.79-.27-1.1-.39-.31-.12-.51-.19-.59-.2-.08-.04-.18-.09-.31-.16-.13-.07-.25-.17-.37-.3-.12-.14-.22-.29-.29-.46-.08-.17-.12-.37-.12-.61v-4.22ZM164.36,47.38h0v11.82h2.47v-11.41c0-.15.03-.33.09-.53.06-.2.18-.39.37-.56.19-.17.45-.32.79-.45.34-.13.79-.19,1.34-.19s.98.06,1.31.19c.32.13.57.28.74.46.17.18.27.37.32.58.05.2.08.39.08.56v11.35h2.5v-11.41c0-.15.03-.33.09-.53.06-.2.18-.39.37-.56.19-.17.45-.32.79-.45.34-.13.79-.19,1.34-.19s.99.06,1.31.19c.32.13.57.28.74.46.17.18.27.37.32.58.05.2.07.39.07.56v11.35h2.5v-11.81c0-.21-.04-.51-.12-.91-.08-.39-.28-.79-.62-1.17-.33-.38-.83-.72-1.5-1-.67-.28-1.59-.42-2.76-.42-.94,0-1.71.09-2.31.28-.6.18-1.08.41-1.46.68-.37-.27-.86-.5-1.45-.68-.6-.18-1.37-.28-2.31-.28-1.18,0-2.1.14-2.77.42-.66.28-1.16.61-1.5,1-.33.39-.54.77-.62,1.16-.08.38-.12.68-.12.91M200.15,49.41v-3.75c.04.21.13.37.28.46.15.1.29.16.43.2.31.1.64.21.97.33.33.12.65.24.94.33.35.12.69.23,1,.35.26.1.49.23.71.41.18.15.33.35.47.59.14.24.21.54.21.91v.17h.03v5.98c-.02.5-.21.94-.57,1.31-.36.38-1.01.56-1.95.56-.49,0-.9-.05-1.22-.16-.32-.11-.58-.25-.76-.42-.19-.17-.32-.36-.4-.58-.08-.21-.12-.42-.12-.61v.03-6.12ZM210.47,41.21h2.47v-2.92h-2.47v2.92ZM237.59,44.17c-.63.18-1.15.43-1.56.75-.41.32-.71.69-.9,1.11-.19.42-.28.88-.28,1.36v.69h2.5c0-.56.17-1.03.51-1.43.34-.4,1-.59,1.98-.59.49,0,.9.05,1.22.16.32.11.58.24.78.42.2.17.33.36.41.56.08.2.12.4.12.59v.55c0,.23-.04.43-.13.61-.09.17-.19.33-.31.46-.12.14-.24.24-.37.31-.13.07-.23.12-.31.16-.08.02-.28.09-.59.2-.32.12-.68.25-1.1.39-.42.14-.86.29-1.31.45-.45.15-.85.29-1.21.4-.71.25-1.25.67-1.63,1.27-.38.6-.57,1.26-.57,1.99v1.36c0,.35.06.73.19,1.14.13.41.38.79.75,1.14.37.35.88.64,1.53.87.65.23,1.49.35,2.53.35s1.88-.12,2.53-.35c.65-.23,1.16-.52,1.53-.87.37-.35.62-.73.75-1.14.13-.41.19-.79.19-1.14v-8.55c0-1-.4-1.83-1.21-2.5-.8-.66-2.07-1-3.79-1-.88,0-1.64.09-2.26.28M237.88,56.74c-.35-.36-.53-.9-.53-1.63,0-.37.07-.67.22-.91.15-.24.31-.44.48-.59.22-.17.44-.31.68-.4.32-.12.65-.23,1-.35.29-.1.61-.21.95-.33.34-.12.66-.23.96-.33.14-.04.28-.11.44-.2.16-.1.25-.24.29-.43v3.55c0,.69-.18,1.23-.53,1.6-.35.38-1.02.56-2,.56s-1.62-.18-1.97-.53M187,44.32c-.67.28-1.16.61-1.5,1-.33.39-.54.78-.62,1.17-.08.4-.12.7-.12.91v8.55c0,.21.04.52.12.91.08.39.28.78.62,1.17.34.39.83.72,1.5,1,.67.28,1.59.42,2.77.42s2.1-.14,2.77-.42c.66-.28,1.16-.61,1.5-1,.33-.38.54-.77.62-1.16.08-.38.12-.69.12-.92v-8.55c0-.23-.04-.54-.12-.92-.08-.39-.28-.77-.62-1.16-.33-.38-.83-.72-1.5-1-.67-.28-1.59-.42-2.77-.42s-2.1.14-2.77.42M188.4,57.08c-.32-.12-.57-.28-.75-.46-.18-.18-.29-.38-.34-.59-.05-.21-.07-.4-.07-.55v-7.62c0-.15.02-.34.07-.55.05-.21.16-.41.34-.59.18-.18.43-.34.75-.46.32-.13.75-.19,1.28-.19.57,0,1.02.06,1.36.19.33.13.59.27.78.45.19.17.31.36.37.56.06.2.09.39.09.56v7.68c0,.17-.03.36-.09.56-.06.2-.18.39-.37.56-.19.17-.45.32-.78.45-.34.12-.79.19-1.36.19-.53,0-.95-.06-1.28-.19M210.47,59.21h2.47v-15.08h-2.47v15.08ZM229.47,44.16v13.55c-.04-.21-.13-.37-.28-.46-.15-.1-.3-.16-.46-.2-.29-.1-.61-.21-.95-.33-.35-.13-.66-.24-.96-.33-.35-.12-.69-.23-1-.35-.24-.1-.46-.23-.68-.41-.18-.15-.34-.35-.49-.59-.15-.24-.22-.54-.22-.91v-9.96h-2.5v10.48c0,.73.19,1.4.57,1.99.38.6.93,1.02,1.63,1.27.35.11.76.25,1.22.4.46.16.9.3,1.31.45.41.14.78.27,1.09.39.31.11.51.18.59.2.08.04.18.09.31.16.13.07.25.17.37.31.12.13.22.29.31.46.09.17.13.38.13.61v.55c0,.17-.03.36-.09.56-.06.2-.18.39-.37.56-.19.17-.45.32-.78.45-.33.12-.78.19-1.35.19-.53,0-.96-.06-1.28-.19-.32-.13-.57-.28-.75-.48-.18-.19-.29-.39-.34-.59-.05-.2-.07-.39-.07-.56v-.26h-2.5v.75c0,.21.04.52.12.91.08.4.28.79.62,1.17.33.39.83.72,1.5,1,.67.28,1.59.42,2.77.42s2.1-.14,2.76-.42c.67-.28,1.17-.61,1.5-1,.33-.39.54-.77.62-1.15.08-.39.12-.69.12-.93v-.4h.03v-17.3h-2.5Z"/>
  <path class="cls-3" d="M123.28,25.24c0-2.82,1.08-5.56,3.09-7.56,2.01-1.99,4.41-2.99,7.22-2.99h10.61c2.31,0,4.3.78,5.97,2.34,1.85,1.72,2.92,4.15,2.92,6.64,0,1.59-.4,3.08-1.19,4.46-.79,1.38-1.89,2.48-3.3,3.3-1.41.82-2.95,1.23-4.62,1.23h-12.93c0-3.37,2.79-6.11,6.22-6.11h6.84c.87,0,1.58-.28,2.13-.83.55-.56.83-1.24.83-2.04s-.27-1.47-.81-2.03c-.54-.56-1.19-.85-1.95-.85h-12.27c-.82,0-1.52.32-2.09.95-.44.49-.67,1.13-.67,1.79v14.88c0,3.26-2.69,5.9-6.01,5.9v-19.08Z"/>
  <path class="cls-3" d="M155.84,26.93v-13.85h5.84v19.59c-3.23,0-5.84-2.57-5.84-5.74M155.84,11.3v-6.11c3.23,0,5.84,2.57,5.84,5.74v.37h-5.84Z"/>
  <path class="cls-3" d="M164.36,22.23v-13.36c0-3.26,2.69-5.9,6.01-5.9v19.46c0,7.53,12.15,1.02,12.15,10.23h-7.53c-2,0-3.99-.5-5.68-1.55-3.12-1.93-4.95-5.28-4.95-8.89"/>
  <path class="cls-3" d="M119.13,14.81h-19.5c-2.54,0-4.7.86-6.46,2.57-1.77,1.71-2.65,3.78-2.65,6.21,0,1.64.42,3.16,1.25,4.55.83,1.39,1.95,2.48,3.34,3.26,1.39.79,2.89,1.18,4.49,1.18h12.31c0-3.37-.4-5.6-3.49-5.95l-8.94-.16c-.78,0-1.46-.27-2.06-.81-.6-.54-.9-1.23-.9-2.07,0-.73.3-1.36.91-1.88.6-.53,1.29-.79,2.05-.79h13.64v11.66h6.01V14.81Z"/>
  <path class="cls-3" d="M71.8,32.68c-18.86,0-18.84-29.74,0-29.74h16.14c0,11.16-15.62,3.5-21.75,8.37-3.68,2.93-3.73,10.02,0,12.99,5.98,4.75,21.75-2.68,21.75,8.37h-16.14Z"/>
  <path class="cls-3" d="M187.99,22.9v.77c0,2.4,1.85,4.37,4.12,4.37h11.8c2.27,0,4.12-1.97,4.12-4.37v-.77c0-2.41-1.86-4.37-4.12-4.37h-11.8c-2.27,0-4.12,1.97-4.12,4.37M191.31,13.31h13.41c4.75,0,8.64,4.13,8.64,9.17v1.62c0,5.04-3.89,9.17-8.64,9.17h-13.41c-4.75,0-8.64-4.13-8.64-9.17v-1.62c0-5.04,3.89-9.17,8.64-9.17"/>
  <path class="cls-3" d="M216.25,13.32h22.32s7.23-.68,7.23,4.41v15.1s-5.11,2.4-5.4-4.23v-7.15c0-1.02-.84-1.85-1.88-1.85h-17.16v13.66s-5.2.6-5.1-5v-14.93Z"/>
</svg>