<?xml version="1.0" encoding="UTF-8"?> <svg xmlns="http://www.w3.org/2000/svg" id="katman_1" data-name="katman 1" viewBox="0 0 274.89 64.47"><defs><style> .cls-1 { fill: #fcb034; } .cls-1, .cls-2 { stroke-width: 0px; } .cls-2 { fill: #ffffff; } </style></defs><path class="cls-2" d="M160.27,32.21c0,3.93-1.31,7.27-3.94,10.01-2.63,2.74-5.83,4.12-9.61,4.12s-6.91-1.38-9.56-4.14c-2.65-2.76-3.98-6.09-3.98-9.99s1.32-7.23,3.96-9.99c2.64-2.76,5.83-4.14,9.58-4.14s6.98,1.37,9.61,4.12c2.62,2.74,3.94,6.08,3.94,10.01M178.99,32.21c0-8.82-3.11-16.39-9.34-22.72C163.43,3.17,155.97,0,147.27,0c-9.18,0-16.94,3.12-23.28,9.36-6.34,6.24-9.52,13.86-9.52,22.85s3.15,16.51,9.45,22.81c6.3,6.3,13.9,9.45,22.81,9.45s16.59-3.13,22.85-9.4c6.27-6.27,9.4-13.89,9.4-22.85"></path><path class="cls-2" d="M61.72,0h-12.26c-1.73,0-2.99.16-3.77,1.73l-13.52,29.25h-.31l-9.79-22.48-9.71,19.96,16.67,34.44c.47.79,1.26,1.57,2.67,1.57h.79c1.42,0,2.2-.79,2.67-1.57L63.92,3.77C65.02,1.73,64.07,0,61.72,0"></path><path class="cls-1" d="M19.69,3.09l-.59-1.36C18.63.79,17.84,0,16.27,0H2.59C.23,0-.55,1.73.39,3.77l9.46,19.54L19.69,3.09Z"></path><path class="cls-2" d="M250.47,32.9s-2.67,0-2.67-2.67v-5.16c0-4.36,1.46-6.54,4.38-6.54,1.5,0,2.55.48,3.13,1.43.58.95.88,2.66.88,5.12v36.02s0,3.38,3.38,3.38h11.95s3.38,0,3.38-3.38V23.83c0-8.11-1.77-14.11-5.3-18C266.06,1.95,260.6,0,253.23,0s-13.59,2.14-17.81,6.43c-4.22,4.29-6.34,10.3-6.34,18.04v36.62s0,3.38,3.38,3.38h11.95s3.38,0,3.38-3.38v-10.93s0-.67.67-.67h2.03s2.7,0,2.7-3.38v-11.2s0-2.01-2-2.01h-.71Z"></path><path class="cls-2" d="M190.27,41.38c0,7.24,1.95,12.9,5.86,16.98,3.9,4.08,9.35,6.12,16.34,6.12h2.55s2.55,0,2.55-3.38v-15.33h-.99c-2.83,0-4.73-.5-5.69-1.49-.96-.99-1.44-2.98-1.44-5.97V3.38S209.44,0,206.07,0h-12.42s-3.38,0-3.38,3.38v38Z"></path><path class="cls-2" d="M75.66,61.09s0,3.38,3.38,3.38h12.42s3.38,0,3.38-3.38V3.38s0-3.38-3.38-3.38h-12.42s-3.38,0-3.38,3.38v57.71Z"></path><path class="cls-2" d="M113.91,2.67c-1.75-1.75-3.87-2.63-6.34-2.63s-4.59.88-6.34,2.63c-1.75,1.75-2.63,3.87-2.63,6.34s.88,4.59,2.63,6.34c1.75,1.75,3.87,2.63,6.34,2.63s4.59-.88,6.34-2.63c1.75-1.75,2.63-3.87,2.63-6.34s-.88-4.59-2.63-6.34M112.51,13.99c-1.37,1.39-3.01,2.08-4.94,2.08s-3.58-.69-4.94-2.08c-1.37-1.39-2.05-3.04-2.05-4.98s.68-3.59,2.05-4.97c1.37-1.39,3.01-2.08,4.94-2.08s3.58.69,4.94,2.08c1.37,1.39,2.05,3.04,2.05,4.97s-.68,3.59-2.05,4.98M109.24,9.42c.59-.24,1.06-.57,1.43-.99.37-.42.55-.96.55-1.61,0-.49-.1-.89-.29-1.21-.19-.32-.49-.6-.9-.83-.37-.2-.75-.32-1.13-.37-.38-.05-.88-.07-1.51-.07h-3.39v8.93h2.2v-3.28h.89l2.71,3.28h2.81l-3.37-3.85ZM108.66,7.62c-.08.17-.19.32-.35.43-.16.12-.37.21-.63.26-.26.05-.58.08-.94.08h-.53v-2.51h.69c.28,0,.54.01.76.04.23.03.42.08.6.18.19.1.32.22.4.38.08.16.12.33.12.51,0,.25-.04.46-.11.63"></path></svg>
