<svg xmlns="http://www.w3.org/2000/svg" viewBox="0 0 200 46" fill="none">
  <!-- Original Hexagon Icon (Dark) -->
  <path fill="#0f172a" d="M25.946 44.938c-.664.845-2.021.375-2.021-.698V33.937a2.26 2.26 0 0 0-2.262-2.262H10.287c-.92 0-1.456-1.04-.92-1.788l7.48-10.471c1.07-1.497 0-3.578-1.842-3.578H1.237c-.92 0-1.456-1.04-.92-1.788L10.013.474c.214-.297.556-.474.92-.474h28.894c.92 0 1.456 1.04.92 1.788l-7.48 10.471c-1.07 1.498 0 3.579 1.842 3.579h11.377c.943 0 1.473 1.088.89 1.83L25.947 44.94z"/>
  <!-- Original Text -->
  <text x="62" y="32" font-family="system-ui, -apple-system, BlinkMacSystemFont, 'Segoe UI', Roboto, sans-serif" font-size="28" font-weight="700" fill="#0f172a" letter-spacing="-0.5">Core</text>
  <text x="122" y="32" font-family="system-ui, -apple-system, BlinkMacSystemFont, 'Segoe UI', Roboto, sans-serif" font-size="28" font-weight="400" fill="#2563eb" letter-spacing="-0.5">Web</text>
</svg>