<?xml version="1.0" encoding="UTF-8"?>
<svg id="Layer_1" xmlns="http://www.w3.org/2000/svg" version="1.1" viewBox="80 215 340 70">
  <!-- Generator: Adobe Illustrator 30.1.0, SVG Export Plug-In . SVG Version: 2.1.1 Build 136)  -->
  <defs>
    <style>
      .st0 {
        fill: #ed1c24;
      }

      .st1 {
        fill: #fff;
      }
    </style>
  </defs>
  <path class="st1" d="M136.06,256.59c-.37,4.7-1.55,8.82-3.56,12.37-2.01,3.55-4.8,6.3-8.38,8.26-3.58,1.96-7.95,2.94-13.12,2.94-5.79,0-10.72-1.29-14.76-3.88-4.05-2.58-7.12-6.04-9.2-10.37-2.09-4.33-3.13-9.16-3.13-14.49,0-3.91.59-7.61,1.76-11.08,1.17-3.47,2.91-6.51,5.2-9.12s5.13-4.66,8.5-6.15,7.24-2.23,11.63-2.23c7.36,0,13.12,1.94,17.27,5.83,4.15,3.89,6.64,9.12,7.48,15.7h-11.36c-.26-1.77-.72-3.38-1.37-4.82s-1.5-2.68-2.54-3.72-2.35-1.84-3.92-2.39-3.42-.82-5.56-.82c-3.71,0-6.75.89-9.12,2.66-2.38,1.77-4.11,4.11-5.21,7.01-1.1,2.9-1.65,5.94-1.65,9.12s.55,6.31,1.65,9.2c1.09,2.9,2.83,5.25,5.21,7.05,2.37,1.8,5.41,2.7,9.12,2.7,2.35,0,4.36-.34,6.03-1.02s3.05-1.63,4.15-2.86c1.09-1.22,1.94-2.67,2.54-4.34.6-1.67.98-3.52,1.14-5.56h11.2Z"/>
  <path class="st1" d="M162.69,280.16c-4.54,0-8.49-.98-11.82-2.94-3.34-1.96-5.94-4.69-7.79-8.18s-2.78-7.49-2.78-11.98.93-8.56,2.78-12.06c1.85-3.5,4.45-6.24,7.79-8.22,3.34-1.98,7.28-2.97,11.82-2.97s8.48.99,11.82,2.97,5.94,4.72,7.79,8.22c1.85,3.5,2.78,7.52,2.78,12.06s-.93,8.49-2.78,11.98c-1.85,3.5-4.45,6.22-7.79,8.18s-7.28,2.94-11.82,2.94ZM162.69,270.69c2.61,0,4.76-.6,6.46-1.8,1.7-1.2,2.97-2.83,3.83-4.89.86-2.06,1.29-4.37,1.29-6.93s-.43-4.96-1.29-7.05c-.86-2.09-2.14-3.73-3.83-4.94-1.7-1.2-3.85-1.8-6.46-1.8s-4.78.6-6.5,1.8c-1.72,1.2-3.02,2.85-3.88,4.94-.86,2.09-1.29,4.44-1.29,7.05s.43,4.87,1.29,6.93c.86,2.06,2.15,3.7,3.88,4.89,1.72,1.2,3.89,1.8,6.5,1.8Z"/>
  <path class="st1" d="M190.71,235.06h10.49v43.85h-10.49v-43.85ZM201.21,257.06l-1.18-7.67c0-1.36.15-2.92.43-4.7.28-1.77.92-3.49,1.92-5.13.99-1.65,2.51-3.02,4.54-4.11,2.04-1.09,4.8-1.64,8.3-1.64v10.33c-3.08,0-5.67.37-7.75,1.1-2.09.73-3.65,2.01-4.7,3.84-1.05,1.83-1.57,4.49-1.57,7.99Z"/>
  <path class="st0" d="M265.82,278.91l-11.8-45.39h10.57l11.02,45.39h-9.79ZM280.08,278.91h-9.79l13.39-54.81h10.57l-14.17,54.81ZM299.11,278.91l-14.17-54.81h10.57l13.39,54.81h-9.79ZM313.43,278.91h-9.79l13.39-54.81h10.57l-14.17,54.81Z"/>
  <path class="st0" d="M324.99,251.92c.54-3.18,1.57-5.95,3.11-8.32,2.06-3.18,4.74-5.61,8.03-7.28,3.29-1.67,6.89-2.51,10.8-2.51,2.98,0,5.8.6,8.46,1.8,2.66,1.2,4.96,2.94,6.89,5.21,1.93,2.27,3.34,5.06,4.23,8.38.89,3.32,1.04,7.09.47,11.31h-31.32v-8.61h24.43l-3.6,2.19c.21-1.72,0-3.42-.63-5.09s-1.67-3.04-3.13-4.11c-1.46-1.07-3.39-1.61-5.8-1.61-3.13,0-5.81,1.02-8.03,3.05-1.48,1.36-2.77,3.35-3.24,5.57M346.93,280.16c-4.07,0-7.69-.82-10.85-2.46-3.16-1.65-5.7-3.94-7.63-6.89s-3.16-6.38-3.68-10.3h10.88c.42,2.98,1.53,5.42,3.33,7.32,1.8,1.91,4.45,2.86,7.95,2.86,2.4,0,4.36-.55,5.87-1.65,1.52-1.1,2.56-2.46,3.13-4.07h11.12c-.63,3.03-1.85,5.68-3.68,7.95-1.83,2.27-4.14,4.05-6.93,5.32s-5.96,1.92-9.51,1.92Z"/>
  <path class="st1" d="M216.6,251.92c.54-3.18,1.57-5.95,3.11-8.32,2.06-3.18,4.74-5.61,8.03-7.28,3.29-1.67,6.89-2.51,10.8-2.51,2.98,0,5.8.6,8.46,1.8,2.66,1.2,4.96,2.94,6.89,5.21,1.93,2.27,3.34,5.06,4.23,8.38.89,3.32,1.04,7.09.47,11.31h-31.32v-8.61h24.43l-3.6,2.19c.21-1.72,0-3.42-.63-5.09s-1.67-3.04-3.13-4.11c-1.46-1.07-3.39-1.61-5.8-1.61-3.13,0-5.81,1.02-8.03,3.05-1.48,1.36-2.77,3.35-3.24,5.57M238.54,280.16c-4.07,0-7.69-.82-10.85-2.46-3.16-1.65-5.7-3.94-7.63-6.89s-3.16-6.38-3.68-10.3h10.88c.42,2.98,1.53,5.42,3.33,7.32,1.8,1.91,4.45,2.86,7.95,2.86,2.4,0,4.36-.55,5.87-1.65,1.52-1.1,2.56-2.46,3.13-4.07h11.12c-.63,3.03-1.85,5.68-3.68,7.95-1.83,2.27-4.14,4.05-6.93,5.32-2.79,1.28-5.96,1.92-9.51,1.92Z"/>
  <path class="st0" d="M371.98,278.91v-58.73h10.49v58.73h-10.49ZM395.39,280.16c-3.6,0-6.53-.73-8.77-2.19-2.25-1.46-3.98-3.48-5.21-6.07-1.23-2.58-2.1-5.52-2.62-8.81l-.16-11.9c.63-3.6,1.61-6.69,2.94-9.28,1.33-2.58,3.12-4.58,5.36-5.99,2.24-1.41,5.06-2.11,8.46-2.11,4.12,0,7.65.99,10.57,2.97s5.18,4.72,6.77,8.22c1.59,3.5,2.39,7.52,2.39,12.06s-.8,8.49-2.39,11.98c-1.59,3.5-3.85,6.22-6.77,8.18s-6.45,2.94-10.57,2.94ZM393.59,270.69c2.4,0,4.39-.6,5.95-1.8,1.57-1.2,2.77-2.83,3.6-4.89.84-2.06,1.25-4.37,1.25-6.93s-.42-4.96-1.25-7.05-2.03-3.73-3.6-4.94c-1.57-1.2-3.55-1.8-5.95-1.8s-4.58.6-6.23,1.8c-1.65,1.2-2.87,2.86-3.68,4.97-.81,2.11-1.21,4.45-1.21,7.01s.4,4.8,1.21,6.89c.81,2.09,2.03,3.73,3.68,4.93,1.65,1.2,3.72,1.8,6.23,1.8Z"/>
</svg>