<?xml version="1.0" encoding="UTF-8"?>
<svg id="Layer_1" data-name="Layer 1" xmlns="http://www.w3.org/2000/svg" viewBox="0 0 514.75 134.57" width="514.75" height="134.57">
  <defs>
    <style>
      .cls-1 {
        fill: #fff;
      }
    </style>
  </defs>
  <path class="cls-1" d="M136.89,30.4c0,7.45-6,13.61-13.45,13.61v-20.25h13.45v6.64ZM474.32,23.8c-22.31,0-40.43,18.11-40.43,40.43s18.11,40.43,40.43,40.43h18.11c0-7.28-6.14-13.42-13.58-13.42h-4.53c-14.88,0-27.01-12.13-27.01-27.01s12.13-27.01,27.01-27.01,27.01,12.13,27.01,27.01v29.92c0,14.88-12.13,27.01-27.01,27.01h-20.54c-7.44,0-13.42,5.98-13.42,13.42h33.96c22.32,0,40.43-18.11,40.43-40.43v-29.92c0-22.32-18.11-40.43-40.43-40.43ZM423.38,104.65l-.11-43.66c-.02-7.44-5.98-13.59-13.42-13.59l.12,57.25h13.42ZM270.88,91.23c-14.88,0-27.01-12.13-27.01-27.01s12.13-27.01,27.01-27.01,27.01,12.13,27.01,27.01-12.13,27.01-27.01,27.01ZM270.88,23.8c-22.32,0-40.43,18.11-40.43,40.43s18.11,40.43,40.43,40.43,40.43-18.11,40.43-40.43-18.11-40.43-40.43-40.43ZM217.51,23.8c-22.32,0-40.43,18.11-40.43,40.43v40.43h13.42v-40.43c0-14.88,12.13-27.01,27.01-27.01h5.18c7.44,0,13.42-5.98,13.42-13.42h-18.6ZM155.58,64.23c0,14.88-12.13,27.01-27.01,27.01s-27.01-12.13-27.01-27.01V23.96h-13.42v40.27c0,22.32,18.11,40.43,40.43,40.43s40.43-18.11,40.43-40.43V23.96c-7.44,0-13.42,5.98-13.42,13.42v26.85ZM318.59,0c7.44,0,13.42,5.98,13.42,13.42v50.8c0,14.88,12.13,27.01,27.01,27.01s27.01-12.13,27.01-27.01-12.13-27.01-27.01-27.01h-6.79c-7.44,0-13.42-5.98-13.42-13.42h20.22c22.32,0,40.43,18.11,40.43,40.43s-18.11,40.43-40.43,40.43-40.43-18.12-40.43-40.43V0ZM424.25,30.23c0,6.68-4.82,12.32-11.18,13.42-1,.24-2.04.37-3.12.37v-20.22h.85v-.21h13.45v6.64ZM20.22,23.8c0,7.44,5.98,13.42,13.42,13.42h6.79c14.88,0,27.01,12.13,27.01,27.01s-12.13,27.01-27.01,27.01-27.01-12.13-27.01-27.01V13.42C13.42,5.98,7.44,0,0,0v16.93h0v47.29C0,86.54,18.12,104.65,40.43,104.65s40.43-18.11,40.43-40.43S62.75,23.8,40.43,23.8h-20.22Z"/>
</svg>