<?xml version="1.0" encoding="UTF-8"?>
<svg id="Layer_1" data-name="Layer 1" xmlns="http://www.w3.org/2000/svg" viewBox="0 0 433.15 77.97">
  <defs>
    <style>
      .cls-1 {
        fill: #fff;
      }
    </style>
  </defs>
  <path class="cls-1" d="M67.79,47.34c-.48,6.11-2.02,11.47-4.63,16.08-2.62,4.61-6.24,8.19-10.89,10.74-4.65,2.55-10.33,3.82-17.05,3.82-7.53,0-13.93-1.68-19.19-5.04-5.26-3.36-9.25-7.85-11.96-13.49C1.36,53.81,0,47.54,0,40.62c0-5.09.76-9.89,2.29-14.4,1.53-4.51,3.78-8.46,6.77-11.86,2.99-3.39,6.67-6.06,11.05-7.99s9.41-2.9,15.12-2.9c9.57,0,17.05,2.53,22.44,7.58,5.4,5.06,8.64,11.86,9.72,20.41h-14.76c-.34-2.31-.93-4.39-1.78-6.26-.85-1.87-1.95-3.48-3.31-4.84s-3.06-2.39-5.09-3.11c-2.04-.71-4.45-1.07-7.23-1.07-4.82,0-8.77,1.16-11.86,3.46-3.09,2.31-5.35,5.34-6.77,9.11-1.43,3.77-2.14,7.72-2.14,11.86s.71,8.2,2.14,11.96c1.42,3.77,3.68,6.82,6.77,9.16,3.08,2.34,7.04,3.51,11.86,3.51,3.06,0,5.67-.44,7.84-1.32,2.17-.88,3.97-2.12,5.4-3.72,1.42-1.59,2.53-3.48,3.31-5.65.78-2.17,1.27-4.58,1.48-7.23h14.56Z"/>
  <path class="cls-1" d="M102.41,77.97c-5.91,0-11.03-1.27-15.37-3.82-4.34-2.55-7.72-6.09-10.13-10.64s-3.62-9.74-3.62-15.58,1.21-11.13,3.62-15.67c2.41-4.55,5.79-8.11,10.13-10.69,4.34-2.58,9.46-3.87,15.37-3.87s11.03,1.29,15.37,3.87c4.34,2.58,7.72,6.14,10.13,10.69,2.41,4.54,3.61,9.77,3.61,15.67s-1.21,11.03-3.61,15.58c-2.41,4.54-5.79,8.09-10.13,10.64-4.34,2.55-9.47,3.82-15.37,3.82ZM102.41,65.66c3.39,0,6.19-.78,8.4-2.34,2.2-1.56,3.87-3.68,4.98-6.36,1.12-2.68,1.68-5.68,1.68-9.01s-.56-6.45-1.68-9.16c-1.12-2.71-2.78-4.85-4.98-6.42-2.21-1.56-5.01-2.34-8.4-2.34s-6.21.78-8.45,2.34c-2.24,1.56-3.92,3.7-5.04,6.42-1.12,2.71-1.68,5.77-1.68,9.16s.56,6.33,1.68,9.01c1.12,2.68,2.8,4.8,5.04,6.36,2.24,1.56,5.05,2.34,8.45,2.34Z"/>
  <path class="cls-1" d="M138.84,19.34h13.64v57h-13.64V19.34ZM152.49,47.95l-1.53-9.97c0-1.76.19-3.8.56-6.11.37-2.31,1.2-4.53,2.49-6.67,1.29-2.14,3.26-3.92,5.9-5.35,2.65-1.42,6.24-2.13,10.79-2.13v13.43c-4.01,0-7.37.48-10.08,1.43-2.71.95-4.75,2.61-6.11,4.99-1.36,2.37-2.04,5.84-2.04,10.38Z"/>
  <path class="cls-1" d="M239.07,76.35l-15.34-59h13.74l14.32,59h-12.73ZM257.6,76.35h-12.73l17.41-65.06h13.74l-18.42,65.06ZM282.33,76.35l-18.43-65.06h13.74l17.41,65.06h-12.73ZM300.96,76.35h-12.73l17.41-71.25h13.74l-18.43,71.25Z"/>
  <path class="cls-1" d="M315.98,41.26c.7-4.13,2.05-7.74,4.04-10.82,2.68-4.14,6.16-7.29,10.43-9.46,4.27-2.17,8.96-3.26,14.05-3.26,3.87,0,7.54.78,10.99,2.34,3.46,1.56,6.45,3.82,8.96,6.77,2.51,2.95,4.34,6.58,5.49,10.89,1.16,4.31,1.36,9.21.61,14.71h-40.72v-11.2h31.76l-4.68,2.85c.27-2.24,0-4.45-.81-6.62-.81-2.17-2.18-3.95-4.07-5.34-1.9-1.39-4.41-2.09-7.54-2.09-4.07,0-7.55,1.32-10.43,3.97-1.93,1.77-3.61,4.35-4.22,7.24M344.5,77.97c-5.29,0-9.99-1.07-14.1-3.2-4.1-2.14-7.42-5.12-9.92-8.96s-4.1-8.3-4.78-13.39h14.15c.54,3.87,1.99,7.04,4.33,9.52,2.34,2.48,5.78,3.72,10.33,3.72,3.12,0,5.67-.72,7.63-2.14,1.97-1.43,3.33-3.19,4.07-5.29h14.46c-.81,3.94-2.41,7.38-4.78,10.33-2.38,2.95-5.38,5.26-9.01,6.92s-7.75,2.49-12.37,2.49Z"/>
  <path class="cls-1" d="M172.49,41.26c.7-4.13,2.05-7.74,4.04-10.82,2.68-4.14,6.16-7.29,10.43-9.46,4.27-2.17,8.96-3.26,14.05-3.26,3.87,0,7.54.78,10.99,2.34,3.46,1.56,6.45,3.82,8.96,6.77,2.51,2.95,4.34,6.58,5.49,10.89,1.16,4.31,1.36,9.21.61,14.71h-40.72v-11.2h31.76l-4.68,2.85c.27-2.24,0-4.45-.81-6.62s-2.18-3.95-4.07-5.34c-1.9-1.39-4.41-2.09-7.54-2.09-4.07,0-7.55,1.32-10.43,3.97-1.93,1.77-3.61,4.35-4.22,7.24M201.02,77.97c-5.29,0-9.99-1.07-14.1-3.2-4.1-2.14-7.42-5.12-9.92-8.96s-4.1-8.3-4.78-13.39h14.15c.54,3.87,1.99,7.04,4.33,9.52,2.34,2.48,5.78,3.72,10.33,3.72,3.12,0,5.67-.72,7.63-2.14,1.97-1.43,3.33-3.19,4.07-5.29h14.46c-.81,3.94-2.41,7.38-4.78,10.33-2.38,2.95-5.38,5.26-9.01,6.92-3.63,1.66-7.75,2.49-12.37,2.49Z"/>
  <path class="cls-1" d="M377.07,76.35V0h13.64v76.35h-13.64ZM407.5,77.97c-4.68,0-8.49-.95-11.4-2.85-2.92-1.9-5.17-4.53-6.77-7.89-1.6-3.36-2.73-7.18-3.41-11.45l-.21-15.47c.81-4.68,2.09-8.7,3.82-12.06,1.73-3.36,4.05-5.96,6.97-7.79,2.92-1.83,6.58-2.75,10.99-2.75,5.36,0,9.94,1.29,13.74,3.87,3.8,2.58,6.73,6.14,8.81,10.69,2.07,4.54,3.11,9.77,3.11,15.67s-1.04,11.03-3.11,15.58c-2.07,4.54-5.01,8.09-8.81,10.64s-8.38,3.82-13.74,3.82ZM405.16,65.66c3.12,0,5.7-.78,7.74-2.34,2.04-1.56,3.59-3.68,4.68-6.36,1.09-2.68,1.63-5.68,1.63-9.01s-.54-6.45-1.63-9.16-2.64-4.85-4.68-6.42c-2.04-1.56-4.62-2.34-7.74-2.34s-5.96.78-8.09,2.34c-2.14,1.56-3.73,3.72-4.78,6.47-1.05,2.75-1.58,5.79-1.58,9.11s.53,6.24,1.58,8.96c1.05,2.71,2.64,4.85,4.78,6.41,2.14,1.56,4.84,2.34,8.09,2.34Z"/>
  <path class="cls-1" d="M371.71,13.93v.08c0,.77-.14,1.48-.42,2.15-.28.67-.67,1.26-1.17,1.76s-1.08.9-1.75,1.18c-.66.28-1.38.42-2.16.42h-.08c-.77,0-1.48-.14-2.15-.42-.67-.28-1.25-.67-1.75-1.18s-.89-1.09-1.17-1.76c-.28-.67-.42-1.39-.42-2.15v-.08c0-.77.14-1.48.42-2.15.28-.67.67-1.25,1.17-1.75s1.09-.89,1.75-1.17c.67-.28,1.39-.42,2.15-.42h.08c.77,0,1.49.14,2.16.42.67.28,1.25.67,1.75,1.17s.89,1.08,1.17,1.75c.28.67.42,1.39.42,2.15ZM371.21,13.93c0-.93-.22-1.77-.67-2.53-.45-.75-1.05-1.36-1.8-1.8s-1.6-.67-2.53-.67h-.08c-.93,0-1.78.22-2.53.67s-1.36,1.05-1.81,1.8c-.45.76-.67,1.6-.67,2.53v.08c0,.93.22,1.78.67,2.53.45.76,1.05,1.36,1.81,1.81.76.45,1.6.67,2.53.67h.08c.93,0,1.77-.22,2.53-.67.76-.45,1.35-1.05,1.8-1.81.45-.76.67-1.6.67-2.53v-.08ZM364.13,17.01v-6.05h2.15c.64,0,1.15.16,1.51.48.37.32.55.75.55,1.29,0,.43-.13.79-.38,1.09-.25.3-.6.5-1.04.61l1.58,2.58h-.56l-1.52-2.51s-.06.01-.1.01h-1.69v2.5h-.49ZM364.64,14.06h1.63c.49,0,.88-.12,1.16-.35.28-.23.42-.56.42-.98s-.14-.74-.43-.97c-.29-.23-.68-.35-1.18-.35h-1.61v2.65Z"/>
</svg>